<?xml version="1.0" standalone="no"?>
<!DOCTYPE svg PUBLIC "-//W3C//DTD SVG 20010904//EN"
 "http://www.w3.org/TR/2001/REC-SVG-20010904/DTD/svg10.dtd">
<svg version="1.0" xmlns="http://www.w3.org/2000/svg"
 width="320.000000pt" height="320.000000pt" viewBox="0 0 320.000000 320.000000"
 preserveAspectRatio="xMidYMid meet">
<metadata>
Created by potrace 1.11, written by Peter Selinger 2001-2013
</metadata>
<g transform="translate(0.000000,320.000000) scale(0.100000,-0.100000)"
fill="#000000" stroke="none">
<path d="M2032 2696 c-199 -49 -373 -224 -417 -421 -12 -57 -15 -128 -13 -380
l3 -310 280 0 280 0 3 283 2 282 -186 0 -187 0 6 54 c15 151 142 278 305 307
l62 11 0 94 0 94 -42 -1 c-24 0 -67 -6 -96 -13z"/>
<path d="M2960 2694 c-198 -52 -367 -222 -412 -415 -9 -38 -13 -149 -13 -374
l0 -320 280 0 280 0 3 283 2 282 -186 0 -187 0 6 50 c8 70 62 174 111 217 52
45 125 80 199 94 l57 12 0 93 0 94 -42 -1 c-24 0 -68 -7 -98 -15z"/>
<path d="M100 1305 l0 -285 186 0 187 0 -6 -47 c-18 -154 -161 -294 -314 -310
l-54 -6 3 -96 c3 -112 0 -109 120 -84 195 40 359 192 424 393 15 47 18 104 22
388 l4 332 -286 0 -286 0 0 -285z"/>
<path d="M1032 1308 l3 -283 185 -5 185 -5 -3 -30 c-18 -166 -146 -299 -313
-323 l-54 -7 -3 -93 c-2 -74 0 -93 12 -98 27 -10 173 24 241 57 82 41 188 137
234 214 19 31 45 93 58 137 22 77 23 95 23 399 l0 319 -285 0 -285 0 2 -282z"/>
</g>
</svg>
